Coordinates
version=1
nRows=10
nColumns=22
inDegrees=yes

Units are S.I. units (second, meters, Newtons, ...)
If the header above contains a line with 'inDegrees', this indicates whether rotational values are in degrees (yes) or radians (no).

endheader
time	pelvis_tilt	pelvis_list	pelvis_rotation	pelvis_tx	pelvis_ty	pelvis_tz	hip_flexion_r	hip_adduction_r	hip_rotation_r	knee_angle_r	ankle_angle_r	subtalar_angle_r	hip_flexion_l	hip_adduction_l	hip_rotation_l	knee_angle_l	ankle_angle_l	subtalar_angle_l	lumbar_extension	lumbar_bending	lumbar_rotation
      3.95000000	     -1.86409857	     -9.96333308	     56.53202320	      0.73929599	      0.97257716	     -0.37477411	     26.25045490	      8.27199798	      2.66925078	    -28.57105235	     15.11879784	     -9.43423227	     23.31786575	     -3.33109950	      3.79570075	    -59.77253555	     11.84106567	     10.82228234	      2.58263700	      6.12321707	      5.15849390
      3.96000000	     -1.88374917	    -10.00449143	     56.51347873	      0.74145760	      0.97274089	     -0.37621871	     26.09250807	      8.37332557	      2.76053719	    -28.47821995	     15.19435301	     -9.59472366	     23.65534025	     -3.49108934	      3.55912768	    -59.55119057	     12.85183133	     10.38054391	      2.53781811	      6.11666974	      5.32035502
      3.97000000	     -1.92893518	    -10.03705628	     56.49834579	      0.74349790	      0.97292611	     -0.37765828	     25.94091952	      8.43757878	      2.85478289	    -28.37855661	     15.26434427	     -9.72965248	     23.96126262	     -3.58024870	      3.37302497	    -59.17731773	     13.83774657	     10.01379802	      2.50638213	      6.08664662	      5.46350017
      3.98000000	     -1.99006357	    -10.07112270	     56.48191903	      0.74543245	      0.97311446	     -0.37908120	     25.80028465	      8.48086363	      2.94998734	    -28.27293212	     15.34349126	     -9.82356183	     24.24561761	     -3.62386950	      3.22309386	    -58.67036772	     14.76927522	      9.77081873	      2.48998292	      6.04836831	      5.60541267
      3.99000000	     -2.06576224	    -10.09684856	     56.47955761	      0.74723918	      0.97329792	     -0.38048849	     25.67322138	      8.48683522	      2.99839241	    -28.17966268	     15.42209300	     -9.89071576	     24.50874014	     -3.62053021	      3.10149519	    -58.05155129	     15.63981593	      9.60585677	      2.47478250	      5.99603312	      5.69336381
      4.00000000	     -2.14861825	    -10.13190759	     56.49215752	      0.74892430	      0.97348724	     -0.38188295	     25.55085103	      8.48553537	      3.07448224	    -28.06516143	     15.47672265	     -9.93640623	     24.75548182	     -3.57654859	      3.04381262	    -57.31935247	     16.42734442	      9.49237402	      2.47581614	      5.95097850	      5.74822419
      4.01000000	     -2.22958899	    -10.14978855	     56.46358438	      0.75062494	      0.97369289	     -0.38324447	     25.40708028	      8.49067234	      3.18561034	    -27.94240131	     15.54402517	    -10.04649787	     24.94864914	     -3.55326400	      2.90990611	    -56.48900292	     17.14524495	      9.23423614	      2.46325198	      5.89776839	      5.86960730
      4.02000000	     -2.30457543	    -10.19713880	     56.47606134	      0.75217992	      0.97384385	     -0.38457330	     25.30022741	      8.48895254	      3.22129905	    -27.82669106	     15.59954903	    -10.08133553	     25.15767817	     -3.52829314	      2.83065102	    -55.59496240	     17.84796127	      9.15351558	      2.47509492	      5.87300915	      5.90147147
      4.03000000	     -2.37087848	    -10.23774466	     56.46806857	      0.75372348	      0.97400131	     -0.38586425	     25.18167964	      8.50331542	      3.30110513	    -27.70929386	     15.65736547	    -10.12954641	     25.32383393	     -3.53170316	      2.69718603	    -54.62573769	     18.53176882	      9.02432544	      2.47993111	      5.85233889	      5.97722443
      4.04000000	     -2.42501221	    -10.29192920	     56.46408315	      0.75521810	      0.97413141	     -0.38709545	     25.07464971	      8.52998387	      3.35542891	    -27.59029194	     15.70227854	    -10.16306876	     25.47756066	     -3.56598846	      2.54831062	    -53.60678861	     19.20702988	      8.88871620	      2.48890041	      5.85047999	      6.02787440
